<?xml version="1.0" encoding="iso-8859-1"?>
<!-- Generator: Adobe Illustrator 19.0.0, SVG Export Plug-In . SVG Version: 6.00 Build 0)  -->
<svg version="1.1" id="Capa_1" xmlns="http://www.w3.org/2000/svg" xmlns:xlink="http://www.w3.org/1999/xlink" x="0px" y="0px"
	 viewBox="0 0 512 512" style="enable-background:new 0 0 512 512;" xml:space="preserve">
<g>
	<g>
		<path d="M512,345.043c0-14.584-11.864-26.448-26.448-26.448h-85.935V188.977c0-95.056-77.333-172.39-172.389-172.39
			c-30.541,0-60.569,8.129-86.841,23.509c-25.481,14.918-46.866,36.255-61.842,61.704c-2.101,3.569-0.91,8.167,2.66,10.268
			c3.568,2.102,8.168,0.91,10.268-2.66c13.681-23.248,33.216-42.739,56.494-56.366c23.974-14.035,51.382-21.454,79.262-21.454
			c86.784,0,157.389,70.604,157.389,157.39v112.231h-34.784V188.977c0-67.604-55-122.604-122.605-122.604
			c-65.085,0-118.48,50.98-122.37,115.104H70.022c0.658-13.949,3.143-27.676,7.428-40.901c1.276-3.94-0.883-8.17-4.823-9.446
			c-3.938-1.274-8.17,0.883-9.446,4.823c-4.769,14.721-7.507,30.001-8.175,45.524h-0.715c-10.198,0-19.178,6.876-21.837,16.722
			l-13.058,48.37C8.43,248.233,0,257.723,0,269.146c0,12.593,10.245,22.837,22.838,22.837h128.786
			c12.593,0,22.838-10.244,22.838-22.837c0-11.423-8.43-20.913-19.395-22.578l-13.059-48.37
			c-2.658-9.846-11.638-16.722-21.836-16.722h-0.285c3.865-55.847,50.529-100.104,107.341-100.104
			c59.333,0,107.605,48.271,107.605,107.604v226.007H272.56c-14.071,0-25.519,11.447-25.519,25.519v29.392
			c0,14.071,11.447,25.519,25.519,25.519h130.021c4.143,0,7.5-3.357,7.5-7.5s-3.357-7.5-7.5-7.5H272.56
			c-5.8,0-10.519-4.719-10.519-10.519v-29.392c0-5.8,4.719-10.519,10.519-10.519h189.331c5.8,0,10.519,4.719,10.519,10.519v29.392
			c0,5.8-4.719,10.519-10.519,10.519h-24.05c-4.143,0-7.5,3.357-7.5,7.5s3.357,7.5,7.5,7.5h24.05
			c14.071,0,25.519-11.447,25.519-25.519v-29.392c0-14.071-11.447-25.519-25.519-25.519h-9.535v-37.599
			c0-2.047-0.309-4.021-0.86-5.892h34.056C500.136,371.493,512,359.628,512,345.043z M149.224,261.308
			c0.008,0,0.016,0.002,0.024,0.002c0.01,0,0.02-0.002,0.03-0.002h2.346c4.322,0,7.838,3.516,7.838,7.838
			c0,4.321-3.516,7.837-7.838,7.837H22.838c-4.322,0-7.838-3.516-7.838-7.837c0-4.322,3.516-7.838,7.838-7.838H149.224z
			 M120.173,196.477c3.435,0,6.46,2.316,7.354,5.632l11.932,44.2H35.002l11.931-44.2c0.896-3.315,3.921-5.632,7.355-5.632H120.173z
			 M359.726,377.384v37.599h-9.893V352.73h11.035c1.089,3.578,2.919,6.833,5.308,9.594
			C362.21,366.128,359.726,371.467,359.726,377.384z M360.762,337.73h-10.929v-21.522h34.784v2.437
			C373.257,319.308,363.805,327.173,360.762,337.73z M437.356,414.983h-62.631v-37.599c0-3.249,2.643-5.892,5.892-5.892h50.847
			c3.249,0,5.892,2.642,5.892,5.892V414.983z M386.174,356.493c-6.313,0-11.448-5.136-11.448-11.449
			c0-6.313,5.136-11.448,11.448-11.448h99.378c6.313,0,11.448,5.136,11.448,11.448c0,6.314-5.136,11.449-11.448,11.449H386.174z"/>
	</g>
</g>
<g>
	<g>
		<path d="M98.884,306.35c-2.986-3.268-7.232-5.143-11.652-5.143c-0.001,0-0.001,0-0.002,0c-4.419,0-8.667,1.874-11.652,5.143
			c-10.732,11.751-28.736,34.948-28.736,58.274c0,22.271,18.118,40.389,40.389,40.389s40.39-18.118,40.39-40.389
			C127.621,341.296,109.616,318.1,98.884,306.35z M87.23,390.013c-13.999,0-25.389-11.39-25.389-25.389
			c0-18.945,17.352-39.99,24.811-48.158c0.157-0.172,0.352-0.259,0.577-0.259c0.227,0,0.42,0.087,0.576,0.258
			c7.461,8.169,24.813,29.213,24.813,48.159C112.62,378.624,101.23,390.013,87.23,390.013z"/>
	</g>
</g>
<g>
</g>
<g>
</g>
<g>
</g>
<g>
</g>
<g>
</g>
<g>
</g>
<g>
</g>
<g>
</g>
<g>
</g>
<g>
</g>
<g>
</g>
<g>
</g>
<g>
</g>
<g>
</g>
<g>
</g>
</svg>
